<?xml version="1.0" encoding="UTF-8"?>
<svg width="0" height="0" version="1.1" xmlns="http://www.w3.org/2000/svg">
  <!-- Home Icon -->
  <symbol id="icon-home" viewBox="0 0 24 24">
    <path d="M12 3L4 9v12h16V9l-8-6zm6 16h-4v-5h-4v5H6v-9l6-4.5 6 4.5v9z"/>
  </symbol>
  
  <!-- Detail Icon -->
  <symbol id="icon-detail" viewBox="0 0 24 24">
    <path d="M14 2H6c-1.1 0-2 .9-2 2v16c0 1.1.9 2 2 2h12c1.1 0 2-.9 2-2V8l-6-6zM6 20V4h7v5h5v11H6z"/>
  </symbol>
  
  <!-- Chat Icon -->
  <symbol id="icon-chat" viewBox="0 0 24 24">
    <path d="M20 2H4c-1.1 0-2 .9-2 2v18l4-4h14c1.1 0 2-.9 2-2V4c0-1.1-.9-2-2-2zm0 14H6l-2 2V4h16v12z"/>
  </symbol>
  
  <!-- User Icon -->
  <symbol id="icon-user" viewBox="0 0 24 24">
    <path d="M12 12c2.21 0 4-1.79 4-4s-1.79-4-4-4-4 1.79-4 4 1.79 4 4 4zm0 2c-2.67 0-8 1.34-8 4v2h16v-2c0-2.66-5.33-4-8-4z"/>
  </symbol>
</svg> 